<svg xmlns="http://www.w3.org/2000/svg" viewBox="0 0 512 512">
<defs><linearGradient id="bg" x1="0%" y1="0%" x2="100%" y2="100%"><stop offset="0%" style="stop-color:#1a472a"/><stop offset="100%" style="stop-color:#2d5a27"/></linearGradient></defs>
<rect width="512" height="512" fill="url(#bg)" rx="80"/>
<!-- Shield -->
<path d="M256 80 L340 130 L340 250 Q340 350 256 400 Q172 350 172 250 L172 130 Z" fill="#3498db" stroke="#2980b9" stroke-width="4"/>
<path d="M256 100 L320 140 L320 245 Q320 335 256 380 Q192 335 192 245 L192 140 Z" fill="#2980b9"/>
<!-- Kitty face -->
<circle cx="230" cy="200" r="20" fill="#fff"/>
<circle cx="282" cy="200" r="20" fill="#fff"/>
<circle cx="230" cy="200" r="10" fill="#2c3e50"/>
<circle cx="282" cy="200" r="10" fill="#2c3e50"/>
<!-- Cat ears -->
<polygon points="200,160 215,120 235,160" fill="#e74c3c" stroke="#c0392b" stroke-width="2"/>
<polygon points="312,160 297,120 277,160" fill="#e74c3c" stroke="#c0392b" stroke-width="2"/>
<!-- Nose and mouth -->
<ellipse cx="256" cy="225" rx="8" ry="6" fill="#e74c3c"/>
<path d="M248 232 Q256 240 264 232" fill="none" stroke="#2c3e50" stroke-width="2"/>
<!-- Sword -->
<rect x="340" y="150" width="8" height="120" rx="2" fill="#bdc3c7" transform="rotate(-15 344 210)"/>
<rect x="330" y="145" width="28" height="10" rx="3" fill="#f39c12" transform="rotate(-15 344 150)"/>
<!-- Banner -->
<rect x="150" y="420" width="212" height="45" rx="8" fill="#e74c3c"/>
<text x="256" y="452" text-anchor="middle" font-family="Arial,sans-serif" font-weight="bold" font-size="28" fill="#fff">STRIKE FORCE</text>
<text x="256" y="490" text-anchor="middle" font-family="Arial,sans-serif" font-weight="bold" font-size="24" fill="#f1c40f">KITTY</text>
</svg>